<svg width="36" height="37" viewBox="0 0 36 37" fill="none" xmlns="http://www.w3.org/2000/svg">
<path d="M8.19886 26.2053C7.61307 26.7911 7.61307 27.7409 8.19886 28.3267C8.78465 28.9124 9.7344 28.9124 10.3202 28.3267L8.19886 26.2053ZM28.4372 9.58832C28.4372 8.75989 27.7656 8.08832 26.9372 8.08832H13.4372C12.6088 8.08832 11.9372 8.75989 11.9372 9.58832C11.9372 10.4167 12.6088 11.0883 13.4372 11.0883L25.4372 11.0883L25.4372 23.0883C25.4372 23.9167 26.1088 24.5883 26.9372 24.5883C27.7656 24.5883 28.4372 23.9167 28.4372 23.0883V9.58832ZM10.3202 28.3267L27.9979 10.649L25.8765 8.52766L8.19886 26.2053L10.3202 28.3267Z" fill="white"/>
</svg>
